/* XPM */
static char *bitcoin128[] = {
/* columns rows colors chars-per-pixel */
"128 128 40 1 ",
"  c black",
". c #100704",
"X c #101010",
"o c #200D08",
"O c #2B110B",
"+ c #30140C",
"@ c #202020",
"# c gray19",
"$ c #401A10",
"% c #502114",
"& c #552315",
"* c #602718",
"= c #702E1C",
"- c gray25",
"; c #505050",
": c #606060",
"> c gray44",
", c #803420",
"< c #8F3B23",
"1 c #9F4127",
"2 c #AA452A",
"3 c #AF482B",
"4 c #B64A2D",
"5 c #BF4E2F",
"6 c #CF5533",
"7 c #D55735",
"8 c #DF5B37",
"9 c #EA5F3A",
"0 c #EF623B",
"q c #FF683F",
"w c #808080",
"e c gray56",
"r c #9F9F9F",
"t c #AFAFAF",
"y c gray75",
"u c gray81",
"i c #DFDFDF",
"p c #EFEFEF",
"a c gray100",
"s c None",
/* pixels */
"ssssssssssssssssssssssssssssssssssssssssssssssssssssssssssssssssssssssssssssssssssssssssssssssssssssssssssssssssssssssssssssssss",
"ssssssssssssssssssssssssssssssssssssssssssssssssssssssssssssssssssssssssssssssssssssssssssssssssssssssssssssssssssssssssssssssss",
"ssssssssssssssssssssssssssssssssssssssssssssssssssssssssssssssssssssssssssssssssssssssssssssssssssssssssssssssssssssssssssssssss",
"ssssssssssssssssssssssssssssssssssssssssssssssssssssssssssssssssssssssssssssssssssssssssssssssssssssssssssssssssssssssssssssssss",
"ssssssssssssssssssssssssssssssssssssssssssssssssssssssssssssssssssssssssssssssssssssssssssssssssssssssssssssssssssssssssssssssss",
"ssssssssssssssssssssssssssssssssssssssssssssssssssssssssssssssssssssssssssssssssssssssssssssssssssssssssssssssssssssssssssssssss",
"ssssssssssssssssssssssssssssssssssssssssssssssssssssssqqq72,&&O         ssssssssssssssssssssssssssssssssssssssssssssssssssssssss",
"ssssssssssssssssssssssssssssssssssssssssssssssssqqqq6<*$                      ssssssssssssssssssssssssssssssssssssssssssssssssss",
"ssssssssssssssssssssssssssssssssssssssssssssqqqq81%.                              ssssssssssssssssssssssssssssssssssssssssssssss",
"sssssssssssssssssssssssssssssssssssssssssqqqq0<+                                     sssssssssssssssssssssssssssssssssssssssssss",
"ssssssssssssssssssssssssssssssssssssssqqqqq3%                                           ssssssssssssssssssssssssssssssssssssssss",
"ssssssssssssssssssssssssssssssssssssqqqqq1o                                               ssssssssssssssssssssssssssssssssssssss",
"ssssssssssssssssssssssssssssssssssqqqqq1o                                                   ssssssssssssssssssssssssssssssssssss",
"ssssssssssssssssssssssssssssssssqqqqq1o                                                       ssssssssssssssssssssssssssssssssss",
"ssssssssssssssssssssssssssssssqqqqq6$                                                           ssssssssssssssssssssssssssssssss",
"sssssssssssssssssssssssssssssqqqq0=                                                              sssssssssssssssssssssssssssssss",
"sssssssssssssssssssssssssssqqqqq5o                                                                 sssssssssssssssssssssssssssss",
"ssssssssssssssssssssssssssqqqqq,                                                                    ssssssssssssssssssssssssssss",
"sssssssssssssssssssssssssqqqq0$                                                                      sssssssssssssssssssssssssss",
"sssssssssssssssssssssssqqqqq6o                                                                         sssssssssssssssssssssssss",
"ssssssssssssssssssssssqqqqq5.                                                                           ssssssssssssssssssssssss",
"sssssssssssssssssssssqqqqq1                                                                              sssssssssssssssssssssss",
"ssssssssssssssssssssqqqqq1                                                                                ssssssssssssssssssssss",
"sssssssssssssssssssqqqqq1                                                                                  sssssssssssssssssssss",
"ssssssssssssssssssqqqqq1                                                                                    ssssssssssssssssssss",
"sssssssssssssssssqqqqq1                                                                                      sssssssssssssssssss",
"ssssssssssssssssqqqqq6.                                                                                       ssssssssssssssssss",
"sssssssssssssssqqqqq0.                                                                                         sssssssssssssssss",
"sssssssssssssssqqqqq+                                                                                          sssssssssssssssss",
"ssssssssssssssqqqqq=                                                                                            ssssssssssssssss",
"sssssssssssssqqqqq3                                                                                              sssssssssssssss",
"ssssssssssssqqqqq0.                                                                                               ssssssssssssss",
"ssssssssssssqqqqq%                                                                                                ssssssssssssss",
"sssssssssssqqqqq3                                                                                                  sssssssssssss",
"ssssssssssqqqqq0o                                                                                                   ssssssssssss",
"ssssssssssqqqqq,                                                  X------@                                          ssssssssssss",
"sssssssssqqqqq8.                                             #>tyaaaaaaaaaapyr>#                                     sssssssssss",
"sssssssssqqqqq*                                           ;rpaaaaaaaaaaaaaaaaaaaie#                                  sssssssssss",
"ssssssssqqqqq8                                         X:iaaaaaaaaaaaaaaaaaaaaaaaaa:                                  ssssssssss",
"ssssssssqqqqq*                                        >paaaaaaaaaaaaaaaaaaaaaaaaaaa@                                  ssssssssss",
"sssssssqqqqq0.                                      #uaaaaaaaaaaaaaaaaaaaaaaaaaaaau                                    sssssssss",
"sssssssqqqqq,                                      >aaaaaaaaaaaaaaaaaaaaaaaaaaaaaaw                                    sssssssss",
"ssssssqqqqqqo                                     raaaaaaaaaaaayw;-       -;wyaaaa#                                     ssssssss",
"ssssssqqqqq3                                    Xuaaaaaaaaaau:X               X:yi                                      ssssssss",
"ssssssqqqqq*                                   Xuaaaaaaaaay-                     @                                      ssssssss",
"sssssqqqqqq.                                   raaaaaaaap>                                                               sssssss",
"sssssqqqqq3                                   waaaaaaaau#                                                                sssssss",
"sssssqqqqq*                                  #aaaaaaaauX                                                                 sssssss",
"ssssqqqqqq.                                  iaaaaaaauX                                                                   ssssss",
"ssssqqqqq6                                  waaaaaaapX                                                                    ssssss",
"ssssqqqqq<                                 Xpaaaaaaa;                                                                     ssssss",
"ssssqqqqq%                                 waaaaaaar                                                                      ssssss",
"sssqqqqqqo                                Xpaaaaaaa@                                                                       sssss",
"sssqqqqq0                                 :aaaaaaar                                                                        sssss",
"sssqqqqq5                                 taaaaaaa@                                                                        sssss",
"sssqqqqq<                                Xaaaaaaau                                                                         sssss",
"sssqqqqq,                                ;aaaaaaa>                                                                         sssss",
"sssqqqqq%                                eaaaaaaa#                                                                         sssss",
"sssqqqqq$                                uaaaaaap                                                                          sssss",
"ssqqqqqq+                                aaaaaaay                                                                           ssss",
"ssqqqqqq                                @aaaaaaaw                                                                           ssss",
"ssqqqqqq                          aaaaaaaaaaaaaaaaaaaay                                                                     ssss",
"ssqqqqqq                          aaaaaaaaaaaaaaaaaaaay                                                                     ssss",
"ssqqqqqq                          aaaaaaaaaaaaaaaaaaaay                                                                     ssss",
"ssqqqqqq                          aaaaaaaaaaaaaaaaaaaay                                                                     ssss",
"ssqqqqqq                          aaaaaaaaaaaaaaaaaaaay                                                                     ssss",
"ssqqqqqq                          ------raaaaaaa>-----#                                                                     ssss",
"ssqqqqqq                                waaaaaaa-                                                                           ssss",
"ssqqqqqqo                               ;aaaaaaa>                                                                           ssss",
"sssqqqqq$                               -aaaaaaaw                                                                           ssss",
"sssqqqqq$                               #aaaaaaat                                                                          sssss",
"sssqqqqq=                                aaaaaaai                                                                          sssss",
"sssqqqqq,                                iaaaaaaaX                                                                         sssss",
"sssqqqqq5                                raaaaaaa:                                                                         sssss",
"sssqqqqq8                                >aaaaaaar                                                                         sssss",
"sssqqqqqq.                               @aaaaaaapX                                                                        sssss",
"ssssqqqqq$                                uaaaaaaa:                                                                       ssssss",
"ssssqqqqq,                                >aaaaaaai                                                                       ssssss",
"ssssqqqqq5                                @aaaaaaaa>                                                                      ssssss",
"ssssqqqqqq                                 raaaaaaap@                                                                     ssssss",
"sssssqqqqq%                                -aaaaaaaau                                                                    sssssss",
"sssssqqqqq1                                 raaaaaaaar                                                                   sssssss",
"sssssqqqqq8                                 Xpaaaaaaaar                                                                  sssssss",
"ssssssqqqqq$                                 :aaaaaaaaarX                                                               ssssssss",
"ssssssqqqqq1                                  raaaaaaaaau-                                                              ssssssss",
"ssssssqqqqq0.                                 Xuaaaaaaaaaar@                     @                                      ssssssss",
"sssssssqqqqq*                                  Xuaaaaaaaaaaar;                X:ta@                                    sssssssss",
"sssssssqqqqq8                                   Xuaaaaaaaaaaaapyw--      #->ruaaaa;                                    sssssssss",
"ssssssssqqqqq$                                    raaaaaaaaaaaaaaaaaaaaaaaaaaaaaaae                                   ssssssssss",
"ssssssssqqqqq5                                     ;paaaaaaaaaaaaaaaaaaaaaaaaaaaaau                                   ssssssssss",
"sssssssssqqqqq$                                     XraaaaaaaaaaaaaaaaaaaaaaaaaaaaaX                                 sssssssssss",
"sssssssssqqqqq5                                       @raaaaaaaaaaaaaaaaaaaaaaaaaap#                                 sssssssssss",
"ssssssssssqqqqq*                                        X>uaaaaaaaaaaaaaaaaaaaapr;                                  ssssssssssss",
"ssssssssssqqqqq8.                                          X;wypaaaaaaaaaaiye:#                                     ssssssssssss",
"sssssssssssqqqqq,                                                @-----#                                           sssssssssssss",
"ssssssssssssqqqqq+                                                                                                 sssssssssssss",
"ssssssssssssqqqqq6                                                                                                ssssssssssssss",
"sssssssssssssqqqqq,                                                                                              sssssssssssssss",
"ssssssssssssssqqqqq+                                                                                            ssssssssssssssss",
"ssssssssssssssqqqqq8.                                                                                           ssssssssssssssss",
"sssssssssssssssqqqqq5                                                                                          sssssssssssssssss",
"ssssssssssssssssqqqqq1                                                                                        ssssssssssssssssss",
"sssssssssssssssssqqqqq*                                                                                      sssssssssssssssssss",
"ssssssssssssssssssqqqqq*                                                                                    ssssssssssssssssssss",
"sssssssssssssssssssqqqqq*                                                                                  sssssssssssssssssssss",
"ssssssssssssssssssssqqqqq*                                                                                ssssssssssssssssssssss",
"sssssssssssssssssssssqqqqq*                                                                              sssssssssssssssssssssss",
"ssssssssssssssssssssssqqqqq*                                                                            ssssssssssssssssssssssss",
"sssssssssssssssssssssssqqqqq1                                                                          sssssssssssssssssssssssss",
"ssssssssssssssssssssssssqqqqq5.                                                                       ssssssssssssssssssssssssss",
"sssssssssssssssssssssssssqqqqq0$                                                                     sssssssssssssssssssssssssss",
"sssssssssssssssssssssssssssqqqqq,                                                                  sssssssssssssssssssssssssssss",
"ssssssssssssssssssssssssssssqqqqq6+                                                               ssssssssssssssssssssssssssssss",
"ssssssssssssssssssssssssssssssqqqqq,.                                                           ssssssssssssssssssssssssssssssss",
"ssssssssssssssssssssssssssssssssqqqq8*                                                        ssssssssssssssssssssssssssssssssss",
"sssssssssssssssssssssssssssssssssqqqqq5$                                                     sssssssssssssssssssssssssssssssssss",
"sssssssssssssssssssssssssssssssssssqqqqq5%                                                 sssssssssssssssssssssssssssssssssssss",
"ssssssssssssssssssssssssssssssssssssssqqqq8=.                                           ssssssssssssssssssssssssssssssssssssssss",
"ssssssssssssssssssssssssssssssssssssssssqqqqq1%                                       ssssssssssssssssssssssssssssssssssssssssss",
"sssssssssssssssssssssssssssssssssssssssssssqqqq01%.                                sssssssssssssssssssssssssssssssssssssssssssss",
"sssssssssssssssssssssssssssssssssssssssssssssssqqqq5,%.                        sssssssssssssssssssssssssssssssssssssssssssssssss",
"ssssssssssssssssssssssssssssssssssssssssssssssssssssqqq94<,%$$            ssssssssssssssssssssssssssssssssssssssssssssssssssssss",
"ssssssssssssssssssssssssssssssssssssssssssssssssssssssssssssssssssssssssssssssssssssssssssssssssssssssssssssssssssssssssssssssss",
"ssssssssssssssssssssssssssssssssssssssssssssssssssssssssssssssssssssssssssssssssssssssssssssssssssssssssssssssssssssssssssssssss",
"ssssssssssssssssssssssssssssssssssssssssssssssssssssssssssssssssssssssssssssssssssssssssssssssssssssssssssssssssssssssssssssssss",
"ssssssssssssssssssssssssssssssssssssssssssssssssssssssssssssssssssssssssssssssssssssssssssssssssssssssssssssssssssssssssssssssss",
"ssssssssssssssssssssssssssssssssssssssssssssssssssssssssssssssssssssssssssssssssssssssssssssssssssssssssssssssssssssssssssssssss",
"ssssssssssssssssssssssssssssssssssssssssssssssssssssssssssssssssssssssssssssssssssssssssssssssssssssssssssssssssssssssssssssssss"
};
