/* XPM */
static char *bitcoin64[] = {
/* columns rows colors chars-per-pixel */
"64 64 40 1 ",
"  c black",
". c #100704",
"X c #101010",
"o c #200D08",
"O c #30140C",
"+ c #202020",
"@ c gray19",
"# c #401A10",
"$ c #502114",
"% c #5B2517",
"& c #602718",
"* c #6A2B1A",
"= c #702E1C",
"- c gray25",
"; c #505050",
": c #606060",
"> c gray44",
", c #803420",
"< c #893822",
"1 c #8F3B23",
"2 c #9F4127",
"3 c #AA452A",
"4 c #AF482B",
"5 c #BF4E2F",
"6 c #CF5533",
"7 c #D55735",
"8 c #DF5B37",
"9 c #EE613B",
"0 c #EF623B",
"q c #FF683F",
"w c #808080",
"e c gray56",
"r c #9F9F9F",
"t c #AFAFAF",
"y c gray75",
"u c gray81",
"i c #DFDFDF",
"p c #EFEFEF",
"a c gray100",
"s c None",
/* pixels */
"ssssssssssssssssssssssssssssssssssssssssssssssssssssssssssssssss",
"ssssssssssssssssssssssssssssssssssssssssssssssssssssssssssssssss",
"ssssssssssssssssssssssssssssssssssssssssssssssssssssssssssssssss",
"sssssssssssssssssssssssssq3*%##.      ssssssssssssssssssssssssss",
"sssssssssssssssssssssq02$                 ssssssssssssssssssssss",
"ssssssssssssssssssqq8&                       sssssssssssssssssss",
"ssssssssssssssssqq8$                           sssssssssssssssss",
"sssssssssssssssq0,                              ssssssssssssssss",
"sssssssssssssqq6o                                 ssssssssssssss",
"ssssssssssssqq2                                    sssssssssssss",
"sssssssssssqq=                                      ssssssssssss",
"ssssssssssqq&                                        sssssssssss",
"sssssssssqq&                                          ssssssssss",
"ssssssssqq2                                            sssssssss",
"sssssssqq6                                              ssssssss",
"ssssssqq0o                                               sssssss",
"ssssssqq=                                                sssssss",
"sssssqq5                                                  ssssss",
"ssssqqq#                     +:rypaapyt>@                  sssss",
"ssssqq5                    -yaaaaaaaaaaaa>                 sssss",
"sssqqq#                  Xtaaaaaaaaaaaaaa@                  ssss",
"sssqq8                  @iaaaauw-X  X->ti                   ssss",
"sssqq1                 @paaau-          X                   ssss",
"ssqqqO                Xuaaar                                 sss",
"ssqq8                 waaar                                  sss",
"ssqq2                +aaaiX                                  sss",
"ssqq=                eaaa:                                   sss",
"sqqq#                iaai                                     ss",
"sqqqo               @aaae                                     ss",
"sqqq                >aaa;                                     ss",
"sqqq             wwwyaaarww+                                  ss",
"sqqq             aaaaaaaaaa-                                  ss",
"sqqq             aaaaaaaaaa-                                  ss",
"sqqq             ---uaaa---X                                  ss",
"sqqq                taaa                                      ss",
"sqqq.               waaa-                                     ss",
"sqqq#               :aaa:                                     ss",
"ssqq=               @aaat                                    sss",
"ssqq2                iaaa+                                   sss",
"ssqq8                waaar                                   sss",
"ssqqqo               +paaa;                                  sss",
"sssqq=                waaap@                                ssss",
"sssqq6                 yaaaaw                               ssss",
"sssqqq#                Xuaaaaiw@      @>u                   ssss",
"ssssqq2                 Xtaaaaaaauyyiaaaa@                 sssss",
"ssssqqqo                  ;iaaaaaaaaaaaaa>                 sssss",
"sssssqq5                    -euaaaaaaaye;                 ssssss",
"sssssqqq$                       +--@                      ssssss",
"ssssssqq0.                                               sssssss",
"sssssssqq4                                              ssssssss",
"ssssssssqq=                                            sssssssss",
"sssssssssqq&                                           sssssssss",
"sssssssssqqq&                                         ssssssssss",
"sssssssssssqq&                                       sssssssssss",
"ssssssssssssqq=                                    sssssssssssss",
"sssssssssssssqq4.                                 ssssssssssssss",
"ssssssssssssssqq0$                               sssssssssssssss",
"ssssssssssssssssqq5o                           sssssssssssssssss",
"ssssssssssssssssssqq2#                       sssssssssssssssssss",
"sssssssssssssssssssssq8=o                 ssssssssssssssssssssss",
"ssssssssssssssssssssssssq7<=#o         sssssssssssssssssssssssss",
"ssssssssssssssssssssssssssssssssssssssssssssssssssssssssssssssss",
"ssssssssssssssssssssssssssssssssssssssssssssssssssssssssssssssss",
"ssssssssssssssssssssssssssssssssssssssssssssssssssssssssssssssss"
};
