/* XPM */
static char *bitcoin32[] = {
/* columns rows colors chars-per-pixel */
"32 32 35 1 ",
"  c black",
". c #100704",
"X c #101010",
"o c #200D08",
"O c #30140C",
"+ c #202020",
"@ c gray19",
"# c #401A10",
"$ c #502114",
"% c #602718",
"& c #702E1C",
"* c gray25",
"= c #505050",
"- c #606060",
"; c gray44",
": c #803420",
"> c #8F3B23",
", c #923B24",
"< c #9D4027",
"1 c #9F4127",
"2 c #BB4C2E",
"3 c #BF4E2F",
"4 c #DF5B37",
"5 c #EF623B",
"6 c #FF683F",
"7 c #808080",
"8 c gray56",
"9 c #9F9F9F",
"0 c #AFAFAF",
"q c gray75",
"w c gray81",
"e c #DFDFDF",
"r c #EFEFEF",
"t c gray100",
"y c None",
/* pixels */
"yyyyyyyyyyyyyyyyyyyyyyyyyyyyyyyy",
"yyyyyyyyyyyyy:o   yyyyyyyyyyyyyy",
"yyyyyyyyyy1$          yyyyyyyyyy",
"yyyyyyy62#              yyyyyyyy",
"yyyyyy6:                 yyyyyyy",
"yyyyy6%                    yyyyy",
"yyyy6%                      yyyy",
"yyy61                       yyyy",
"yy64.          X**@          yyy",
"yy6%         -wttttr=         yy",
"yy5         9te;***8@         yy",
"y6>        9t9                yy",
"y6$       +t0                  y",
"y6.       8t@                  y",
"66        wr                   y",
"66      7ttttq                 y",
"66      *7te7-                 y",
"66        rw                   y",
"y6.       qtX                  y",
"y6$       ;t7                  y",
"y6>       Xrt@                yy",
"yy4        *tr7+   =+         yy",
"yy6%        @qtttttt;         yy",
"yy64.         @;77-@         yyy",
"yyy6>                       yyyy",
"yyyy6%                      yyyy",
"yyyyy6%                    yyyyy",
"yyyyyy6&                  yyyyyy",
"yyyyyyy63o              yyyyyyyy",
"yyyyyyyyy6,O          yyyyyyyyyy",
"yyyyyyyyyyyyy%     yyyyyyyyyyyyy",
"yyyyyyyyyyyyyyyyyyyyyyyyyyyyyyyy"
};
